<svg xmlns="http://www.w3.org/2000/svg" viewBox="0 0 128 128" role="img" aria-label="CryptoBill desk">
  <rect width="128" height="128" rx="16" fill="#232321"/>
  <rect x="15" y="20" width="98" height="64" rx="8" fill="#f7f7f3"/>
  <rect x="24" y="30" width="33" height="44" rx="4" fill="#d9f3f5"/>
  <rect x="63" y="30" width="40" height="10" rx="3" fill="#171716"/>
  <rect x="63" y="47" width="28" height="8" rx="3" fill="#188958"/>
  <rect x="63" y="62" width="35" height="8" rx="3" fill="#c93f32"/>
  <path d="M28 64 36 52l9 7 8-16" fill="none" stroke="#087e8b" stroke-width="5" stroke-linecap="round" stroke-linejoin="round"/>
  <rect x="29" y="84" width="70" height="9" rx="4" fill="#66645f"/>
  <rect x="50" y="92" width="28" height="10" rx="2" fill="#d8d7d0"/>
  <rect x="22" y="104" width="84" height="9" rx="4" fill="#c78116"/>
  <circle cx="98" cy="91" r="8" fill="#6556c7"/>
  <path d="M94 91h8M98 87v8" stroke="#fff" stroke-width="2" stroke-linecap="round"/>
</svg>
